<svg width="80" height="80" viewBox="0 0 80 80" fill="none" xmlns="http://www.w3.org/2000/svg">
<path d="M33.3333 13.3333H66.6667C70.3667 13.3333 73.3333 16.3 73.3333 20V26.6667H61.9667L53.3333 35.3V48.6334L46.6667 55.3V66.6667H33.3333V55.3L26.6667 48.6334V31.3667L33.3333 24.7V13.3333ZM60 38.0334V46.6667H73.3333V33.3334H64.7L60 38.0334ZM21.9667 26.6667L26.6667 21.9667V13.3333H13.3334C9.63335 13.3333 6.66669 16.3 6.66669 20V26.6667H21.9667ZM20 46.6667V33.3334H6.66669V46.6667H20ZM26.6667 58.0334L21.9667 53.3334H6.66669V60C6.66669 63.7 9.63335 66.6667 13.3334 66.6667H26.6667V58.0334ZM58.0333 53.3334L53.3333 58.0334V66.6667H66.6667C70.3667 66.6667 73.3333 63.7 73.3333 60V53.3334H58.0333Z" fill="white"/>
</svg>
