<svg width="52" height="51" viewBox="0 0 52 51" fill="none" xmlns="http://www.w3.org/2000/svg">
<path d="M21.75 36.125V29.75H6.875V21.25H21.75V14.875L32.375 25.5L21.75 36.125ZM21.75 4.25H40.875C42.0022 4.25 43.0832 4.69777 43.8802 5.4948C44.6772 6.29183 45.125 7.37283 45.125 8.5V42.5C45.125 43.6272 44.6772 44.7082 43.8802 45.5052C43.0832 46.3022 42.0022 46.75 40.875 46.75H21.75C20.6228 46.75 19.5418 46.3022 18.7448 45.5052C17.9478 44.7082 17.5 43.6272 17.5 42.5V38.25H21.75V42.5H40.875V8.5H21.75V12.75H17.5V8.5C17.5 7.37283 17.9478 6.29183 18.7448 5.4948C19.5418 4.69777 20.6228 4.25 21.75 4.25Z" fill="black"/>
</svg>
