<svg width="60" height="61" viewBox="0 0 60 61" fill="none" xmlns="http://www.w3.org/2000/svg">
<path d="M30 20.5C32.6522 20.5 35.1957 21.5536 37.0711 23.4289C38.9464 25.3043 40 27.8478 40 30.5C40 33.1522 38.9464 35.6957 37.0711 37.5711C35.1957 39.4464 32.6522 40.5 30 40.5C27.3478 40.5 24.8043 39.4464 22.9289 37.5711C21.0536 35.6957 20 33.1522 20 30.5C20 27.8478 21.0536 25.3043 22.9289 23.4289C24.8043 21.5536 27.3478 20.5 30 20.5ZM30 25.5C28.6739 25.5 27.4022 26.0268 26.4645 26.9645C25.5268 27.9021 25 29.1739 25 30.5C25 31.8261 25.5268 33.0978 26.4645 34.0355C27.4022 34.9732 28.6739 35.5 30 35.5C31.3261 35.5 32.5979 34.9732 33.5355 34.0355C34.4732 33.0978 35 31.8261 35 30.5C35 29.1739 34.4732 27.9021 33.5355 26.9645C32.5979 26.0268 31.3261 25.5 30 25.5ZM25 55.5C24.375 55.5 23.85 55.05 23.75 54.45L22.825 47.825C21.25 47.2 19.9 46.35 18.6 45.35L12.375 47.875C11.825 48.075 11.15 47.875 10.85 47.325L5.85003 38.675C5.52503 38.125 5.67503 37.45 6.15003 37.075L11.425 32.925L11.25 30.5L11.425 28L6.15003 23.925C5.67503 23.55 5.52503 22.875 5.85003 22.325L10.85 13.675C11.15 13.125 11.825 12.9 12.375 13.125L18.6 15.625C19.9 14.65 21.25 13.8 22.825 13.175L23.75 6.55C23.85 5.95 24.375 5.5 25 5.5H35C35.625 5.5 36.15 5.95 36.25 6.55L37.175 13.175C38.75 13.8 40.1 14.65 41.4 15.625L47.625 13.125C48.175 12.9 48.85 13.125 49.15 13.675L54.15 22.325C54.475 22.875 54.325 23.55 53.85 23.925L48.575 28L48.75 30.5L48.575 33L53.85 37.075C54.325 37.45 54.475 38.125 54.15 38.675L49.15 47.325C48.85 47.875 48.175 48.1 47.625 47.875L41.4 45.375C40.1 46.35 38.75 47.2 37.175 47.825L36.25 54.45C36.15 55.05 35.625 55.5 35 55.5H25ZM28.125 10.5L27.2 17.025C24.2 17.65 21.55 19.25 19.625 21.475L13.6 18.875L11.725 22.125L17 26C16 28.925 16 32.1 17 35L11.7 38.9L13.575 42.15L19.65 39.55C21.575 41.75 24.2 43.35 27.175 43.95L28.1 50.5H31.9L32.825 43.975C35.8 43.35 38.425 41.75 40.35 39.55L46.425 42.15L48.3 38.9L43 35.025C44 32.1 44 28.925 43 26L48.275 22.125L46.4 18.875L40.375 21.475C38.45 19.25 35.8 17.65 32.8 17.05L31.875 10.5H28.125Z" fill="black"/>
</svg>
