<svg width="50" height="51" viewBox="0 0 50 51" fill="none" xmlns="http://www.w3.org/2000/svg">
<path d="M25 15.5C27.6522 15.5 30.1957 16.5536 32.0711 18.4289C33.9464 20.3043 35 22.8478 35 25.5C35 28.1522 33.9464 30.6957 32.0711 32.5711C30.1957 34.4464 27.6522 35.5 25 35.5C22.3478 35.5 19.8043 34.4464 17.9289 32.5711C16.0536 30.6957 15 28.1522 15 25.5C15 22.8478 16.0536 20.3043 17.9289 18.4289C19.8043 16.5536 22.3478 15.5 25 15.5ZM25 20.5C23.6739 20.5 22.4022 21.0268 21.4645 21.9645C20.5268 22.9021 20 24.1739 20 25.5C20 26.8261 20.5268 28.0978 21.4645 29.0355C22.4022 29.9732 23.6739 30.5 25 30.5C26.3261 30.5 27.5979 29.9732 28.5355 29.0355C29.4732 28.0978 30 26.8261 30 25.5C30 24.1739 29.4732 22.9021 28.5355 21.9645C27.5979 21.0268 26.3261 20.5 25 20.5ZM20 50.5C19.375 50.5 18.85 50.05 18.75 49.45L17.825 42.825C16.25 42.2 14.9 41.35 13.6 40.35L7.37502 42.875C6.82502 43.075 6.15002 42.875 5.85002 42.325L0.850026 33.675C0.525026 33.125 0.675026 32.45 1.15003 32.075L6.42502 27.925L6.25002 25.5L6.42502 23L1.15003 18.925C0.675026 18.55 0.525026 17.875 0.850026 17.325L5.85002 8.675C6.15002 8.125 6.82502 7.9 7.37502 8.125L13.6 10.625C14.9 9.65 16.25 8.8 17.825 8.175L18.75 1.55C18.85 0.95 19.375 0.5 20 0.5H30C30.625 0.5 31.15 0.95 31.25 1.55L32.175 8.175C33.75 8.8 35.1 9.65 36.4 10.625L42.625 8.125C43.175 7.9 43.85 8.125 44.15 8.675L49.15 17.325C49.475 17.875 49.325 18.55 48.85 18.925L43.575 23L43.75 25.5L43.575 28L48.85 32.075C49.325 32.45 49.475 33.125 49.15 33.675L44.15 42.325C43.85 42.875 43.175 43.1 42.625 42.875L36.4 40.375C35.1 41.35 33.75 42.2 32.175 42.825L31.25 49.45C31.15 50.05 30.625 50.5 30 50.5H20ZM23.125 5.5L22.2 12.025C19.2 12.65 16.55 14.25 14.625 16.475L8.60002 13.875L6.72502 17.125L12 21C11 23.925 11 27.1 12 30L6.70002 33.9L8.57502 37.15L14.65 34.55C16.575 36.75 19.2 38.35 22.175 38.95L23.1 45.5H26.9L27.825 38.975C30.8 38.35 33.425 36.75 35.35 34.55L41.425 37.15L43.3 33.9L38 30.025C39 27.1 39 23.925 38 21L43.275 17.125L41.4 13.875L35.375 16.475C33.45 14.25 30.8 12.65 27.8 12.05L26.875 5.5H23.125Z" fill="white"/>
</svg>
